/* XPM */
static char * bottom_right_active_xpm[] = {
"22 13 2 1",
" 	c None",
".	c #4A6787",
"                    ..",
"                    ..",
"                    ..",
"                    ..",
"                    ..",
"                    ..",
"                    ..",
"                    ..",
"                    ..",
"                    ..",
"                    ..",
"......................",
"......................"};
