/* XPM */
static char * bottom_right_inactive_xpm[] = {
"22 13 2 1",
" 	c None",
".	c #AE0303",
"                    ..",
"                    ..",
"                    ..",
"                    ..",
"                    ..",
"                    ..",
"                    ..",
"                    ..",
"                    ..",
"                    ..",
"                    ..",
"......................",
"......................"};
