/* XPM */
static char * close_active_xpm[] = {
"22 23 24 1",
" 	c None",
".	c #4A6787",
"+	c #505050",
"@	c #DA1A1A",
"#	c #D81414",
"$	c #D90F0F",
"%	c #DB2828",
"&	c #D90505",
"*	c #D90000",
"=	c #D90C0C",
"-	c #DA0606",
";	c #DA0E0E",
">	c #D90303",
",	c #D90909",
"'	c #D80303",
")	c #D90404",
"!	c #DA0505",
"~	c #D80909",
"{	c #D90707",
"]	c #D80B0B",
"^	c #D91414",
"/	c #D90D0D",
"(	c #DA0909",
"_	c #DB1919",
"......................",
"++++++++++++++++++++++",
"++++++++++++++++++++++",
"++++++++++++++++++++++",
"++++++++++++++++++++++",
"++++++++++++++++++++++",
"++++++++++++++++++++++",
"++++++++++++++++++++++",
"+++++++@#++++$%+++++++",
"+++++++&*=++-*;+++++++",
"++++++++>*,-*&++++++++",
"+++++++++'**)+++++++++",
"+++++++++!**~+++++++++",
"++++++++{*)>*]++++++++",
"+++++++,*-++>*^+++++++",
"+++++++/(++++&_+++++++",
"++++++++++++++++++++++",
"++++++++++++++++++++++",
"++++++++++++++++++++++",
"++++++++++++++++++++++",
"++++++++++++++++++++++",
"++++++++++++++++++++++",
"++++++++++++++++++++++"};
