/* XPM */
static char * maximize_prelight_xpm[] = {
"22 23 4 1",
" 	c None",
".	c #4A6787",
"+	c #505050",
"@	c #8FADCF",
"......................",
"++++++++++++++++++++++",
"++++++++++++++++++++++",
"++++++++++++++++++++++",
"++++++++++++++++++++++",
"++++++++++++++++++++++",
"++++++++++++++++++++++",
"++++++@@@@@@@@@+++++++",
"++++++@@@@@@@@@+++++++",
"++++++@@+++++@@+++++++",
"++++++@@+++++@@+++++++",
"++++++@@+++++@@+++++++",
"++++++@@+++++@@+++++++",
"++++++@@+++++@@+++++++",
"++++++@@@@@@@@@+++++++",
"++++++@@@@@@@@@+++++++",
"++++++++++++++++++++++",
"++++++++++++++++++++++",
"++++++++++++++++++++++",
"++++++++++++++++++++++",
"++++++++++++++++++++++",
"++++++++++++++++++++++",
"++++++++++++++++++++++"};
