/* XPM */
static char * menu_prelight_xpm[] = {
"20 22 21 1",
" 	c None",
".	c #505050",
"+	c #9B9B9B",
"@	c #7C7C7C",
"#	c #656565",
"$	c #838383",
"%	c #999999",
"&	c #AEAEAE",
"*	c #767676",
"=	c #6F6F6F",
"-	c #7F7F7F",
";	c #A9A9A9",
">	c #B2B2B2",
",	c #7A7A7A",
"'	c #808080",
")	c #B4B4B4",
"!	c #686868",
"~	c #AAAAAA",
"{	c #B8B8B8",
"]	c #8B8B8B",
"^	c #646464",
"....................",
"....................",
"....................",
"....................",
"....................",
"....................",
"....................",
"....................",
"....................",
"......+@####$%......",
".......&*==-;.......",
"........>,')........",
"........!~{.........",
".........]^.........",
"....................",
"....................",
"....................",
"....................",
"....................",
"....................",
"....................",
"...................."};
