/* XPM */
static char * menu_pressed_xpm[] = {
"20 22 26 1",
" 	c None",
".	c #505050",
"+	c #496D88",
"@	c #528AB5",
"#	c #486A85",
"$	c #9D9FA0",
"%	c #749FC1",
"&	c #5C92BC",
"*	c #7DA5C4",
"=	c #999A9B",
"-	c #AEB5BA",
";	c #6E9FC4",
">	c #669BC3",
",	c #77A4C6",
"'	c #A9ACAF",
")	c #4D4D4D",
"!	c #B0C1CD",
"~	c #71A4CB",
"{	c #77A8CC",
"]	c #B4BCC2",
"^	c #686868",
"/	c #A7C1D5",
"(	c #B7C5CF",
"_	c #515151",
":	c #8B8B8B",
"<	c #646464",
"....................",
"....................",
"....................",
"....................",
"....................",
"....................",
"....................",
"....................",
"......+@@@@@@#......",
"......$%&&&&*=......",
".......-;>>,'.......",
".......)!~{]........",
"........^/(_........",
".........:<.........",
"....................",
"....................",
"....................",
"....................",
"....................",
"....................",
"....................",
"...................."};
