/* XPM */
static char * stick_active_xpm[] = {
"20 22 47 1",
" 	c None",
".	c #505050",
"+	c #7E7E7E",
"@	c #646464",
"#	c #BDBDBD",
"$	c #DFDFDF",
"%	c #EBEBEB",
"&	c #8D8D8D",
"*	c #ABABAB",
"=	c #ECECEC",
"-	c #E5E5E5",
";	c #E1E1E1",
">	c #D4D4D4",
",	c #E4E4E4",
"'	c #D5D5D5",
")	c #7C7C7C",
"!	c #CBCBCB",
"~	c #C6C6C6",
"{	c #606060",
"]	c #909090",
"^	c #C1C1C1",
"/	c #595959",
"(	c #A3A3A3",
"_	c #B8B8B8",
":	c #B9B9B9",
"<	c #C9C9C9",
"[	c #A4A4A4",
"}	c #5B5B5B",
"|	c #585858",
"1	c #898989",
"2	c #B2B2B2",
"3	c #D3D3D3",
"4	c #D8D8D8",
"5	c #E7E7E7",
"6	c #EEEEEE",
"7	c #E6E6E6",
"8	c #E3E3E3",
"9	c #CECECE",
"0	c #939393",
"a	c #5F5F5F",
"b	c #DDDDDD",
"c	c #C2C2C2",
"d	c #B3B3B3",
"e	c #525252",
"f	c #B5B5B5",
"g	c #A8A8A8",
"h	c #A6A6A6",
"....................",
"....................",
"....................",
".............+..@#$.",
".............%&*=-;$",
"............@>,;'>>.",
"............)!!!~{..",
"............]^^^^/..",
"............(___:<..",
"............[)}.....",
"....................",
"....................",
".....|1234..........",
"....56%78[..........",
".....9>>>+..........",
"....0!!!!a..........",
"..b,3c^^^...........",
"..;__de.f...........",
"...gh...............",
"....................",
"....................",
"...................."};
