/* XPM */
static char * stick_pressed_xpm[] = {
"20 22 47 1",
" 	c None",
".	c #505050",
"+	c #A6A6A6",
"@	c #636363",
"#	c #EBEBEB",
"$	c #FFFFFF",
"%	c #A9A9A9",
"&	c #D2D2D2",
"*	c #777777",
"=	c #FDFDFD",
"-	c #F5F5F5",
";	c #E8E8E8",
">	c #E9E9E9",
",	c #EFEFEF",
"'	c #9B9B9B",
")	c #E5E5E5",
"!	c #CFCFCF",
"~	c #C8C8C8",
"{	c #C5C5C5",
"]	c #BDBDBD",
"^	c #D9D9D9",
"/	c #C6C6C6",
"(	c #E7E7E7",
"_	c #DCDCDC",
":	c #DEDEDE",
"<	c #545454",
"[	c #E3E3E3",
"}	c #A4A4A4",
"|	c #616161",
"1	c #A7A7A7",
"2	c #676767",
"3	c #D1D1D1",
"4	c #E0E0E0",
"5	c #DADADA",
"6	c #D4D4D4",
"7	c #D8D8D8",
"8	c #808080",
"9	c #969696",
"0	c #D0D0D0",
"a	c #CDCDCD",
"b	c #5C5C5C",
"c	c #F9F9F9",
"d	c #D6D6D6",
"e	c #DFDFDF",
"f	c #DDDDDD",
"g	c #C4C4C4",
"h	c #BABABA",
"....................",
"....................",
"....................",
".............+..@#$.",
".............$%&$$$$",
"............*=$-;>,.",
"............')!~{...",
"............]^/~&...",
"............(_!&:$<.",
"............[}|.....",
"....................",
"....................",
".....|1)$$..........",
"...2$$$$$3..........",
".....45678..........",
"....970a^b..........",
"..$$c^7de...........",
"..$[7!..f...........",
"...gh...............",
"....................",
"....................",
"...................."};
