/* XPM */
static char * stick_inactive_xpm[] = {
"20 22 36 1",
" 	c None",
".	c #505050",
"+	c #707070",
"@	c #A8A8A8",
"#	c #C7C7C7",
"$	c #D1D1D1",
"%	c #7E7E7E",
"&	c #989898",
"*	c #D3D3D3",
"=	c #CCCCCC",
"-	c #C5C5C5",
";	c #BBBBBB",
">	c #CBCBCB",
",	c #BCBCBC",
"'	c #6D6D6D",
")	c #B1B1B1",
"!	c #ADADAD",
"~	c #A7A7A7",
"{	c #A9A9A9",
"]	c #8D8D8D",
"^	c #9F9F9F",
"/	c #666666",
"(	c #797979",
"_	c #BDBDBD",
":	c #BFBFBF",
"<	c #CECECE",
"[	c #D5D5D5",
"}	c #C9C9C9",
"|	c #8F8F8F",
"1	c #B5B5B5",
"2	c #808080",
"3	c #B2B2B2",
"4	c #C4C4C4",
"5	c #B9B9B9",
"6	c #9A9A9A",
"7	c #9C9C9C",
"....................",
"....................",
"....................",
".............+...@#.",
".............$%&*=#-",
".............;>#,;;.",
"............')))!...",
"............%~~~{...",
"............]^^^^)..",
"............]/......",
"....................",
"....................",
"......(^_:..........",
"....<[$<}|..........",
".....1;;;'..........",
"....23)))...........",
"..4>5@~~~...........",
"..#^^6..7...........",
"...|]...............",
"....................",
"....................",
"...................."};
