/* XPM */
static char * bottom_left_inactive_xpm[] = {
"22 13 2 1",
" 	c None",
".	c #AE0303",
"..                    ",
"..                    ",
"..                    ",
"..                    ",
"..                    ",
"..                    ",
"..                    ",
"..                    ",
"..                    ",
"..                    ",
"..                    ",
"......................",
"......................"};
