/* XPM */
static char * menu_active_xpm[] = {
"20 22 20 1",
" 	c None",
".	c #505050",
"+	c #9C9C9C",
"@	c #9A9A9A",
"#	c #8B8B8B",
"$	c #9F9F9F",
"%	c #999999",
"&	c #B2B2B2",
"*	c #969696",
"=	c #919191",
"-	c #AAAAAA",
";	c #4D4D4D",
">	c #BCBCBC",
",	c #989898",
"'	c #B8B8B8",
")	c #686868",
"!	c #BABABA",
"~	c #BFBFBF",
"{	c #515151",
"]	c #646464",
"....................",
"....................",
"....................",
"....................",
"....................",
"....................",
"....................",
"....................",
"....................",
"......+@####$%......",
".......&*==+-.......",
".......;>,+'........",
"........)!~{........",
".........#].........",
"....................",
"....................",
"....................",
"....................",
"....................",
"....................",
"....................",
"...................."};
