/* XPM */
static char * menu_inactive_xpm[] = {
"20 22 18 1",
" 	c None",
".	c #505050",
"+	c #777777",
"@	c #878787",
"#	c #828282",
"$	c #898989",
"%	c #757575",
"&	c #868686",
"*	c #858585",
"=	c #919191",
"-	c #8A8A8A",
";	c #8C8C8C",
">	c #565656",
",	c #949494",
"'	c #929292",
")	c #4E4E4E",
"!	c #6D6D6D",
"~	c #545454",
"....................",
"....................",
"....................",
"....................",
"....................",
"....................",
"....................",
"....................",
"....................",
"......+@####$%......",
".......@&**$#.......",
"........=$-;........",
"........>,')........",
".........!~.........",
"....................",
"....................",
"....................",
"....................",
"....................",
"....................",
"....................",
"...................."};
