/* XPM */
static char * stick_prelight_xpm[] = {
"20 22 52 1",
" 	c None",
".	c #505050",
"+	c #929292",
"@	c #666666",
"#	c #D9D9D9",
"$	c #FFFFFF",
"%	c #9A9A9A",
"&	c #BDBDBD",
"*	c #F9F9F9",
"=	c #FAFAFA",
"-	c #FDFDFD",
";	c #6D6D6D",
">	c #E7E7E7",
",	c #F3F3F3",
"'	c #EBEBEB",
")	c #DEDEDE",
"!	c #E3E3E3",
"~	c #8B8B8B",
"{	c #D8D8D8",
"]	c #CECECE",
"^	c #CBCBCB",
"/	c #C7C7C7",
"(	c #A5A5A5",
"_	c #CDCDCD",
":	c #C4C4C4",
"<	c #C5C5C5",
"[	c #C2C2C2",
"}	c #C9C9C9",
"|	c #C3C3C3",
"1	c #EAEAEA",
"2	c #C6C6C6",
"3	c #8D8D8D",
"4	c #5E5E5E",
"5	c #5C5C5C",
"6	c #969696",
"7	c #F6F6F6",
"8	c #545454",
"9	c #F5F5F5",
"0	c #F2F2F2",
"a	c #B8B8B8",
"b	c #D5D5D5",
"c	c #D7D7D7",
"d	c #7F7F7F",
"e	c #D3D3D3",
"f	c #D2D2D2",
"g	c #E5E5E5",
"h	c #CCCCCC",
"i	c #CFCFCF",
"j	c #C1C1C1",
"k	c #C8C8C8",
"l	c #B7B7B7",
"m	c #B4B4B4",
"....................",
"....................",
"....................",
".............+..@#$.",
".............$%&$*=-",
"............;>,'))!.",
"............~{]^/...",
"............(_:<^...",
"............[}|:^1..",
"............234.....",
"....................",
"....................",
".....56^7$..........",
"...8$$$90a..........",
".....{{bcd..........",
"....6e]_f4..........",
"..$$g_h^i...........",
"..$h/j..k...........",
"...lm...............",
"....................",
"....................",
"...................."};
