/* XPM */
static char * title_5_active_xpm[] = {
"2 25 3 1",
" 	c None",
".	c #4A6787",
"+	c #505050",
"..",
"..",
"++",
"++",
"++",
"++",
"++",
"++",
"++",
"++",
"++",
"++",
"++",
"++",
"++",
"++",
"++",
"++",
"++",
"++",
"++",
"++",
"++",
"++",
"++"};
