/* XPM */
static char * top_right_active_xpm[] = {
"4 25 3 1",
" 	c None",
".	c #4A6787",
"+	c #505050",
"..  ",
"... ",
"+...",
"++..",
"++..",
"++..",
"++..",
"++..",
"++..",
"++..",
"++..",
"++..",
"++..",
"++..",
"++..",
"++..",
"++..",
"++..",
"++..",
"++..",
"++..",
"++..",
"++..",
"++..",
"++.."};
